{"title":"The Hidden Face.2011.DVDRip.XViD.SUBBED.EN.AC3.","uid":6999793,"size":1021566976,"categoryP":"video","categoryS":"movies","magnet":"?xt=urn:btih:169bc7e81e8ca484a3a08629360ce706fcb275e5&amp;dn=The+Hidden+Face.2011.DVDRip.XViD.SUBBED.EN.AC3.&amp;tr=udp%3A%2F%2Ftracker.openbittorrent.com%3A80&amp;tr=udp%3A%2F%2Fopen.demonii.com%3A1337&amp;tr=udp%3A%2F%2Ftracker.coppersurfer.tk%3A6969&amp;tr=udp%3A%2F%2Fexodus.desync.com%3A6969","seeders":2,"leechers":1,"uploader":"moviesp2p","files":1,"time":1328017585,"description":" &lt;a href=&quot;http://www.imdb.com/title/tt1772250/&quot; rel=&quot;nofollow&quot; target=&quot;_NEW&quot;&gt;http://www.imdb.com/title/tt1772250/&lt;/a&gt;\n\n\nLa cara oculta (2011)\nR  Thriller   -  16 September 2011 (Spain)\n6.5\nYour rating:\n    -/10  \nRatings: 6.5/10 from 241 users  \nReviews: write review | 6 critic\n\nA Spanish orchestra conductor deals with the mysterious disappearance of his girlfriend.\n\nDirector:\nAndrÃƒÂ©s Baiz\nWriters:\nStewart St. John (english adaptation), AndrÃƒÂ©s Baiz (screenplay), and 1 more credit Ã‚Â»\nStars:\nMartina GarcÃƒÂ­a, Quim GutiÃƒÂ©rrez and Clara Lago \n\n\nFormat                                   : AVI\nFormat/Info                              : Audio Video Interleave\nFile size                                : 974 MiB\nDuration                                 : 1h 32mn\nOverall bit rate                         : 1 480 Kbps\nWriting application                      : VirtualDubMod 1.5.4.1 (build 2178/release)\nWriting library                          : VirtualDubMod build 2178/release\n\nVideo\nID                                       : 0\nFormat                                   : MPEG-4 Visual\nFormat profile                           : Advanced Simple@L5\nFormat settings, BVOP                    : 1\nFormat settings, QPel                    : No\nFormat settings, GMC                     : No warppoints\nFormat settings, Matrix                  : Custom\nCodec ID                                 : XVID\nCodec ID/Hint                            : XviD\nDuration                                 : 1h 32mn\nBit rate                                 : 1 025 Kbps\nWidth                                    : 720 pixels\nHeight                                   : 304 pixels\nDisplay aspect ratio                     : 2.35:1\nFrame rate                               : 25.000 fps\nColor space                              : YUV\nChroma subsampling                       : 4:2:0\nBit depth                                : 8 bits\nScan type                                : Progressive\nCompression mode                         : Lossy\nBits/(Pixel*Frame)                       : 0.187\nStream size                              : 675 MiB (69%)\nWriting library                          : XviD 64\n\nAudio\nID                                       : 1\nFormat                                   : AC-3\nFormat/Info                              : Audio Coding 3\nMode extension                           : CM (complete main)\nCodec ID                                 : 2000\nDuration                                 : 1h 32mn\nBit rate mode                            : Constant\nBit rate                                 : 448 Kbps\nChannel(s)                               : 6 channels\nChannel positions                        : Front: L C R, Side: L R, LFE\nSampling rate                            : 48.0 KHz\nBit depth                                : 16 bits\nCompression mode                         : Lossy\nStream size                              : 295 MiB (30%)\nAlignment                                : Split accross interleaves\nInterleave, duration                     : 96 ms (2.40 video frames)\nInterleave, preload duration             : 96 ms\nLanguage                                 : Spanish\n","torrent":{"xt":"urn:btih:169bc7e81e8ca484a3a08629360ce706fcb275e5","amp;dn":"The+Hidden+Face.2011.DVDRip.XViD.SUBBED.EN.AC3.","amp;tr":["udp%3A%2F%2Ftracker.openbittorrent.com%3A80","udp%3A%2F%2Fopen.demonii.com%3A1337","udp%3A%2F%2Ftracker.coppersurfer.tk%3A6969","udp%3A%2F%2Fexodus.desync.com%3A6969"],"infoHash":"169bc7e81e8ca484a3a08629360ce706fcb275e5","infoHashBuffer":{"type":"Buffer","data":[22,155,199,232,30,140,164,132,163,160,134,41,54,12,231,6,252,178,117,229]},"announce":[],"urlList":[]}}